<svg version="1.1" id="Layer_1" xmlns="http://www.w3.org/2000/svg" xmlns:xlink="http://www.w3.org/1999/xlink" x="0px" y="0px"
	 width="100%" viewBox="0 0 512 512" enable-background="new 0 0 512 512" xml:space="preserve">
<path fill="#000000" opacity="1.000000" stroke="none" 
	d="
M281.531342,1.000000 
	C284.790680,3.843972 288.647034,2.776628 291.938263,3.408639 
	C323.043060,9.381699 350.896790,22.195885 375.455200,42.181534 
	C398.108582,60.616840 415.565857,83.142929 427.732849,109.647972 
	C435.022675,125.528374 439.812744,142.200653 442.424805,159.550507 
	C444.466522,173.112045 445.067261,186.749176 444.169769,200.306198 
	C442.739197,221.915649 437.856659,242.901352 429.037567,262.785889 
	C421.330170,280.163818 411.576660,296.294861 398.691132,310.407715 
	C396.900513,312.368896 396.255127,314.237701 397.909668,317.050201 
	C410.365265,338.222870 422.626038,359.510406 434.898712,380.790314 
	C447.745270,403.065216 460.525146,425.378601 473.362549,447.658844 
	C476.210388,452.601440 474.750610,456.819336 471.489594,460.884155 
	C468.136505,465.063660 463.821350,465.261902 459.363281,463.550964 
	C446.370636,458.564575 433.467072,453.346558 420.511230,448.263611 
	C413.600189,445.552246 406.653229,442.932373 399.307312,440.111755 
	C396.466919,446.994965 396.552277,454.020264 395.469666,460.749695 
	C393.105011,475.448792 391.283936,490.235107 389.214294,504.982056 
	C388.804565,507.901764 386.925110,510.074554 385.124451,512.667603 
	C381.307098,513.000000 377.614166,513.000000 373.345764,512.674927 
	C371.321960,510.139252 369.768188,507.989838 368.443726,505.707367 
	C362.949310,496.238983 357.556976,486.711395 352.066467,477.240723 
	C341.592133,459.173370 331.039032,441.151581 320.588867,423.070282 
	C311.460815,407.276581 302.433960,391.424377 293.350372,375.604980 
	C291.878662,373.041901 289.881836,371.935944 286.733582,372.577393 
	C266.830139,376.632721 246.817383,376.041687 226.896301,373.020752 
	C222.818741,372.402435 220.696594,373.088654 218.802170,376.380127 
	C208.787659,393.779663 198.782761,411.185303 188.650711,428.516449 
	C172.165146,456.715485 156.916534,485.642090 139.000000,513.000000 
	C135.307098,513.000000 131.614182,513.000000 127.460640,513.000000 
	C122.818039,506.998749 122.705963,499.886810 121.695564,493.061035 
	C119.131813,475.741547 116.738838,458.396759 114.253799,440.895203 
	C110.001656,440.242188 106.757614,442.600159 103.344208,443.929840 
	C86.811310,450.370239 70.383514,457.080383 53.853405,463.528107 
	C49.859478,465.085999 45.419899,465.519043 42.211246,462.035614 
	C38.828568,458.363281 37.961632,453.666718 40.450634,449.150757 
	C47.506836,436.348297 54.725498,423.633240 62.030128,410.970245 
	C73.888962,390.412323 85.877037,369.928925 97.790596,349.402496 
	C103.457924,339.638000 108.863983,329.713165 114.816093,320.126465 
	C117.611984,315.623322 117.424713,312.792267 113.778572,308.526794 
	C97.872261,289.918549 86.203880,268.809204 78.781136,245.418335 
	C74.256660,231.160645 71.753578,216.599777 70.489014,201.651459 
	C68.326698,176.091049 71.522621,151.343262 79.684608,127.187759 
	C87.309921,104.620560 98.915062,84.291916 114.487717,66.163986 
	C132.639526,45.033680 154.129898,28.331676 179.466293,16.857332 
	C195.055313,9.797370 211.305939,4.518551 228.463684,2.575243 
	C230.760605,2.315092 233.020050,1.723957 235.648422,1.143047 
	C251.020889,1.000000 266.041779,1.000000 281.531342,1.000000 
M365.696899,314.214020 
	C381.384979,299.441162 395.150543,283.194885 405.071289,263.878815 
	C422.180573,230.566483 427.983032,195.347260 421.392822,158.593216 
	C414.631775,120.886215 397.145721,88.794075 368.209686,63.113132 
	C351.715363,48.474297 333.274384,37.504215 312.539062,30.118540 
	C283.561218,19.796972 253.942932,17.455650 223.931549,23.724842 
	C183.716278,32.125557 151.170929,53.275734 125.744293,85.394936 
	C112.084663,102.649910 102.475670,122.087967 96.688835,143.270355 
	C91.371925,162.732605 89.105324,182.471634 91.146278,202.802811 
	C92.905014,220.322662 96.771332,237.206375 103.757919,253.196030 
	C113.683075,275.910919 127.437363,296.000793 146.444366,312.404144 
	C156.695129,321.250702 167.449356,329.293671 179.384445,335.462402 
	C196.236710,344.172485 214.017868,350.204742 233.005341,352.949219 
	C252.823822,355.813812 272.346527,355.172028 291.813568,351.050140 
	C319.359558,345.217682 343.480316,332.364349 365.696899,314.214020 
M398.444672,416.751465 
	C412.241425,422.213531 426.038177,427.675598 439.834961,433.137665 
	C440.136597,432.786713 440.438263,432.435791 440.739929,432.084869 
	C420.891571,397.759216 401.043213,363.433533 380.965820,328.711792 
	C370.184967,337.143677 360.115845,344.947906 348.861969,351.071259 
	C337.663025,357.164703 325.917358,362.023529 313.269470,366.803131 
	C333.465363,402.002136 353.310730,436.590210 373.156128,471.178314 
	C374.792816,467.601257 375.215973,464.656769 375.662903,461.715912 
	C377.503082,449.607605 379.026398,437.439301 381.294098,425.411438 
	C383.238007,415.101196 387.898376,412.853943 398.444672,416.751465 
M82.883095,416.245605 
	C79.790977,421.653229 76.283646,426.840332 73.598000,433.243134 
	C75.101768,432.717041 76.013725,432.429382 76.902512,432.082367 
	C90.499542,426.773590 104.134644,421.558838 117.669899,416.096741 
	C123.894920,413.584686 132.060822,416.034760 133.288269,425.342896 
	C134.563568,435.013824 135.985626,444.665863 137.399857,454.317902 
	C138.218704,459.906616 139.148636,465.479034 140.028580,471.058807 
	C140.388290,471.089233 140.747986,471.119659 141.107697,471.150085 
	C161.018646,436.455597 180.929596,401.761108 201.259918,366.335907 
	C175.461731,358.629547 153.613556,345.491058 133.311722,328.899231 
	C127.912102,338.169983 123.047394,346.451630 118.250435,354.772369 
	C106.566338,375.039429 94.913658,395.324646 82.883095,416.245605 
z"/>
<path fill="#000000" opacity="1.000000" stroke="none" 
	d="
M368.067627,283.036804 
	C350.442139,303.826294 328.824524,317.968262 303.372437,326.527100 
	C288.438599,331.548859 273.007812,333.964203 257.446014,333.898163 
	C236.605850,333.809662 216.395889,329.901398 197.096756,321.220795 
	C181.417130,314.168213 167.288528,304.889313 155.240540,292.980743 
	C133.499832,271.491638 119.094383,245.747360 113.511215,215.322296 
	C111.947624,206.801636 110.979485,198.174576 110.893272,189.673004 
	C110.686546,169.287201 114.327049,149.429367 122.174423,130.439957 
	C131.115372,108.804276 144.761353,90.520164 162.509811,75.554283 
	C180.810623,60.122658 201.831635,49.520763 225.434631,44.712074 
	C243.603561,41.010471 261.845825,40.513409 280.315796,43.334705 
	C306.597992,47.349323 329.933319,57.747528 350.335297,74.469666 
	C374.265137,94.083321 390.258972,119.041252 398.315247,149.015396 
	C402.398590,164.208008 404.187317,179.695114 403.231873,195.330215 
	C402.082336,214.141006 397.987732,232.314651 389.790771,249.508560 
	C384.042114,261.566895 377.299377,272.865997 368.067627,283.036804 
M147.445862,249.129272 
	C152.828583,259.349609 159.845993,268.558075 167.976562,276.502930 
	C181.485977,289.703796 197.195694,299.853241 215.229797,306.243835 
	C237.686935,314.201752 260.427460,315.826569 283.719635,310.830811 
	C297.523254,307.870209 310.368500,302.590363 322.376160,295.294617 
	C347.235962,280.190033 364.934753,259.022339 375.015350,231.716156 
	C381.213196,214.927536 383.769287,197.614395 382.818726,179.581833 
	C381.864075,161.470261 377.086670,144.516754 368.758179,128.746582 
	C357.616180,107.648994 341.653870,90.794571 320.807251,78.730339 
	C292.583618,62.396927 262.572113,57.230774 230.680267,64.127159 
	C205.661591,69.537277 184.443039,81.757828 166.661133,100.258888 
	C146.194595,121.553146 134.483337,147.018921 131.600235,176.073975 
	C129.069519,201.577728 134.227631,226.002792 147.445862,249.129272 
z"/>
<path fill="#000000" opacity="1.000000" stroke="none" 
	d="
M258.833008,244.589569 
	C250.446167,248.577545 243.905777,254.816147 236.435959,259.706879 
	C232.698547,262.153900 229.472336,265.357178 225.366562,267.273926 
	C217.276993,271.050415 209.276001,270.515808 202.357895,265.133453 
	C195.190598,259.557251 191.719803,251.989182 194.659317,242.688751 
	C198.060501,231.927704 201.586136,221.204666 205.196884,210.512115 
	C206.094803,207.853119 206.088791,206.268890 203.350845,204.412201 
	C194.569229,198.457077 186.178802,191.928711 177.478058,185.849625 
	C170.086838,180.685471 166.011002,171.142746 167.869278,162.406708 
	C169.449844,154.976257 176.801590,147.354996 184.943726,146.393372 
	C196.427414,145.037079 207.873306,145.848495 219.321915,145.808426 
	C224.432159,145.790512 226.665726,144.146057 227.950500,139.276337 
	C230.316010,130.310379 233.369720,121.526756 236.106171,112.657745 
	C241.018814,96.735649 258.196747,90.368225 270.774750,99.864700 
	C274.628235,102.774139 276.886627,106.825584 278.349030,111.341576 
	C281.413788,120.805496 284.568207,130.243362 287.428009,139.769318 
	C288.706635,144.028259 290.766876,145.981339 295.559631,145.765808 
	C304.535278,145.362183 313.543060,145.566177 322.535706,145.670288 
	C339.346222,145.864853 347.223694,153.586868 348.940613,169.807251 
	C349.546082,175.527237 345.974640,180.765610 341.403870,184.259888 
	C332.321350,191.203400 322.940918,197.770874 313.493927,204.215714 
	C310.641357,206.161789 311.129028,208.201202 311.932068,210.659622 
	C315.385101,221.231293 319.019989,231.747772 322.244629,242.388611 
	C325.082916,251.754547 321.467102,259.417175 314.530212,265.496765 
	C308.712006,270.595886 297.407654,271.022461 290.067596,266.364105 
	C283.080963,261.930023 276.547211,256.784546 269.787811,251.989243 
	C266.278748,249.499802 262.712280,247.091232 258.833008,244.589569 
M225.341415,202.619797 
	C225.640762,205.187363 224.769424,207.540955 223.998672,209.910095 
	C220.151276,221.736191 216.272675,233.552307 212.489182,245.398804 
	C212.130829,246.520813 211.156326,247.942886 212.740631,249.011154 
	C213.797745,249.723953 214.580063,249.050446 215.409012,248.439987 
	C225.562851,240.962173 235.816589,233.616547 245.862625,225.996948 
	C253.280579,220.370667 258.219208,219.891006 265.709839,225.221313 
	C273.277374,230.606354 280.625214,236.299210 288.151337,241.743820 
	C291.915710,244.467102 295.343506,247.837051 300.092590,249.095016 
	C301.192566,246.833282 300.031403,245.137695 299.512787,243.493225 
	C295.872162,231.948654 292.116974,220.440018 288.358704,208.932846 
	C285.873444,201.323425 286.762756,197.688553 292.665802,193.252701 
	C297.447906,189.659195 302.409821,186.305984 307.244995,182.781754 
	C313.895020,177.934738 320.500732,173.026947 327.050201,168.200592 
	C325.380829,164.954529 322.884125,165.407120 320.612488,165.400360 
	C307.953186,165.362671 295.290375,165.187378 282.635925,165.431305 
	C276.938416,165.541138 273.655701,162.290573 272.097626,157.869125 
	C268.189545,146.778992 265.079468,135.410080 261.452240,124.216843 
	C260.585815,121.543152 260.524445,118.296974 257.736420,116.506119 
	C255.415939,117.614670 255.360382,119.873001 254.766281,121.651382 
	C250.878326,133.289749 247.182907,144.992249 243.353119,156.650314 
	C241.012070,163.776611 238.780823,165.355423 231.412766,165.363434 
	C219.086533,165.376816 206.760254,165.365784 194.434006,165.379105 
	C191.977631,165.381760 189.351044,165.047562 188.001007,168.187302 
	C188.492630,168.810135 188.887527,169.582077 189.509186,170.057465 
	C199.787872,177.917496 210.068909,185.775040 220.413086,193.548431 
	C223.222275,195.659454 225.218369,198.107666 225.341415,202.619797 
z"/>
</svg>